<svg width="28" height="29" viewBox="0 0 28 29" fill="none" xmlns="http://www.w3.org/2000/svg">
<path d="M13.7514 28.1234C21.3461 28.1234 27.5028 22.018 27.5028 14.4866C27.5028 6.95525 21.3461 0.849854 13.7514 0.849854C6.1567 0.849854 0 6.95525 0 14.4866C0 22.018 6.1567 28.1234 13.7514 28.1234Z" fill="#7289DA"/>
<path d="M18.7202 7.96118C19.5689 7.96118 20.2538 8.64302 20.294 9.44472V22.3437L18.6772 20.9827L17.7882 20.181L16.8186 19.3447L17.2242 20.6658H8.74234C7.89631 20.6658 7.20874 20.0265 7.20874 19.1822V9.44738C7.20874 8.64568 7.89631 7.96385 8.74771 7.96385H18.7175L18.7202 7.96118ZM15.0218 11.3677H15.003L14.8821 11.4876C16.1337 11.8471 16.7407 12.4091 16.7407 12.4091C15.9323 12.0096 15.2071 11.8098 14.4792 11.7273C13.9528 11.6474 13.4291 11.69 12.9832 11.7273H12.8624C12.5777 11.7273 11.9734 11.8471 11.1649 12.1667C10.8829 12.2893 10.7218 12.3692 10.7218 12.3692C10.7218 12.3692 11.3261 11.7699 12.6609 11.4476L12.5804 11.3677C12.5804 11.3677 11.5705 11.3304 10.4801 12.1295C10.4801 12.1295 9.38962 14.0125 9.38962 16.335C9.38962 16.335 9.99393 17.3764 11.6511 17.4164C11.6511 17.4164 11.8928 17.0968 12.1372 16.8171C11.2079 16.5374 10.8453 15.9755 10.8453 15.9755C10.8453 15.9755 10.9259 16.0154 11.0468 16.0953H11.0817C11.1005 16.0953 11.1085 16.1033 11.1166 16.114V16.1166C11.1273 16.1273 11.1354 16.1353 11.1515 16.1353C11.3503 16.2178 11.549 16.2977 11.7129 16.375C11.9949 16.4948 12.3575 16.6173 12.8006 16.6972C13.3619 16.7772 14.0065 16.8171 14.7398 16.6972C15.1024 16.6173 15.4649 16.5374 15.8275 16.3776C16.0639 16.2578 16.3539 16.1379 16.6709 15.9355C16.6709 15.9355 16.3083 16.4975 15.3387 16.7772C15.5375 17.0568 15.8195 17.3764 15.8195 17.3764C17.4766 17.3418 18.1212 16.2977 18.1588 16.343C18.1588 14.0232 17.063 12.1374 17.063 12.1374C16.0746 11.4103 15.1507 11.3837 14.9869 11.3837L15.0218 11.3677ZM15.1238 14.0125C15.5482 14.0125 15.892 14.3721 15.892 14.8115C15.892 15.2537 15.5482 15.6132 15.1238 15.6132C14.6995 15.6132 14.3557 15.2537 14.3557 14.8142C14.3584 14.3721 14.7022 14.0125 15.1238 14.0125ZM12.3789 14.0125C12.8006 14.0125 13.1444 14.3721 13.1444 14.8115C13.1444 15.2537 12.8006 15.6132 12.3763 15.6132C11.9546 15.6132 11.6081 15.2537 11.6081 14.8142C11.6108 14.3721 11.9546 14.0125 12.3789 14.0125Z" fill="white"/>
</svg>
