<svg width="28" height="29" viewBox="0 0 28 29" fill="none" xmlns="http://www.w3.org/2000/svg">
<path d="M14.2542 28.1366C21.8489 28.1366 28.0056 22.0312 28.0056 14.4998C28.0056 6.96843 21.8489 0.863037 14.2542 0.863037C6.65951 0.863037 0.502808 6.96843 0.502808 14.4998C0.502808 22.0312 6.65951 28.1366 14.2542 28.1366Z" fill="#E4405F"/>
<path d="M14.2542 7.68164C12.3876 7.68164 12.1539 7.68963 11.4207 7.72159C10.6875 7.75622 10.1906 7.87074 9.7528 8.03854C9.30158 8.21166 8.91751 8.44605 8.53344 8.82425C8.14937 9.20246 7.9157 9.58333 7.74112 10.0335C7.57192 10.4676 7.45643 10.963 7.42151 11.6874C7.3866 12.4146 7.38123 12.6463 7.38123 14.4974C7.38123 16.3485 7.38928 16.5802 7.42151 17.3073C7.45643 18.0317 7.57192 18.5271 7.74112 18.9613C7.9157 19.4087 8.15205 19.7896 8.53344 20.1705C8.91483 20.5487 9.2989 20.7831 9.7528 20.9562C10.1906 21.124 10.6902 21.2385 11.4207 21.2731C12.1539 21.3078 12.3876 21.3131 14.2542 21.3131C16.1209 21.3131 16.3545 21.3051 17.0878 21.2731C17.8183 21.2385 18.3179 21.124 18.7557 20.9562C19.2069 20.7831 19.5909 20.5487 19.975 20.1705C20.3564 19.7923 20.5928 19.4114 20.7673 18.9613C20.9365 18.5271 21.052 18.0317 21.0869 17.3073C21.1219 16.5802 21.1272 16.3485 21.1272 14.4974C21.1272 12.6463 21.1192 12.4146 21.0869 11.6874C21.052 10.963 20.9365 10.4676 20.7673 10.0335C20.5928 9.586 20.3564 9.20513 19.975 8.82425C19.5936 8.44605 19.2096 8.21166 18.7557 8.03854C18.3179 7.87074 17.8183 7.75622 17.0878 7.72159C16.3545 7.68963 16.1209 7.68164 14.2542 7.68164ZM14.2542 8.90948C16.0886 8.90948 16.3089 8.91747 17.034 8.94944C17.7055 8.9814 18.0681 9.0906 18.3098 9.18648C18.6321 9.309 18.8604 9.45815 19.1021 9.6952C19.3412 9.93491 19.4916 10.1613 19.6151 10.4809C19.7091 10.7206 19.8219 11.0802 19.8515 11.746C19.8837 12.4652 19.8918 12.6809 19.8918 14.5027C19.8918 16.3245 19.8837 16.5402 19.8488 17.2594C19.8139 17.9252 19.7011 18.2848 19.6071 18.5245C19.4781 18.8441 19.3331 19.0705 19.0914 19.3102C18.8523 19.5472 18.6187 19.6964 18.3018 19.8189C18.06 19.9121 17.6921 20.024 17.0206 20.0533C16.2901 20.0853 16.0752 20.0932 14.2354 20.0932C12.3956 20.0932 12.1808 20.0853 11.4502 20.0506C10.7788 20.016 10.4108 19.9041 10.1691 19.8109C9.84412 19.6831 9.61851 19.5393 9.37947 19.2995C9.13775 19.0625 8.98466 18.8308 8.8638 18.5165C8.76979 18.2768 8.65699 17.9119 8.62207 17.246C8.59521 16.5296 8.58716 16.3085 8.58716 14.4947C8.58716 12.6782 8.59521 12.4572 8.62207 11.7327C8.65699 11.0669 8.76711 10.702 8.8638 10.4623C8.98466 10.1373 9.13775 9.91626 9.37947 9.67655C9.61851 9.43951 9.84412 9.28503 10.1691 9.16517C10.4108 9.07195 10.7707 8.96009 11.4422 8.92546C12.1727 8.89883 12.3876 8.89084 14.2274 8.89084L14.2542 8.90948ZM14.2542 10.9976C12.3043 10.9976 10.7224 12.5664 10.7224 14.5C10.7224 16.4337 12.3043 18.0025 14.2542 18.0025C16.2041 18.0025 17.7861 16.4337 17.7861 14.5C17.7861 12.5664 16.2041 10.9976 14.2542 10.9976ZM14.2542 16.7719C12.9892 16.7719 11.9632 15.7545 11.9632 14.5C11.9632 13.2456 12.9892 12.2281 14.2542 12.2281C15.5192 12.2281 16.5452 13.2456 16.5452 14.5C16.5452 15.7545 15.5192 16.7719 14.2542 16.7719ZM18.7503 10.8618C18.7503 11.3146 18.3796 11.6795 17.9257 11.6795C17.4692 11.6795 17.1012 11.3119 17.1012 10.8618C17.1012 10.4117 17.4718 10.0441 17.9257 10.0441C18.3796 10.0414 18.7503 10.409 18.7503 10.8618Z" fill="white"/>
</svg>
