<svg width="29" height="29" viewBox="0 0 29 29" fill="none" xmlns="http://www.w3.org/2000/svg">
<path d="M14.2598 28.1237C21.8545 28.1237 28.0112 22.0183 28.0112 14.4869C28.0112 6.95549 21.8545 0.850098 14.2598 0.850098C6.66513 0.850098 0.508423 6.95549 0.508423 14.4869C0.508423 22.0183 6.66513 28.1237 14.2598 28.1237Z" fill="#FF4500"/>
<path d="M21.1354 14.593C21.1354 13.77 20.4613 13.1014 19.6314 13.1014C19.2258 13.1014 18.8578 13.2612 18.5866 13.5196C17.5579 12.7845 16.1398 12.3077 14.5632 12.2545L15.2481 9.05568L17.4881 9.52711C17.5149 10.0918 17.9823 10.5419 18.557 10.5419C19.1506 10.5419 19.6314 10.0651 19.6314 9.47651C19.6314 8.88789 19.1506 8.41113 18.557 8.41113C18.1354 8.41113 17.7728 8.65351 17.5982 9.00508L15.0977 8.47772C15.0279 8.46174 14.9553 8.47506 14.8963 8.51501C14.8372 8.55229 14.7942 8.61355 14.7808 8.6828L14.0153 12.2518C12.4146 12.2971 10.975 12.7712 9.93287 13.5169C9.6616 13.2586 9.29633 13.1014 8.89346 13.1014C8.06354 13.1014 7.3894 13.77 7.3894 14.593C7.3894 15.2002 7.75467 15.7196 8.27841 15.954C8.25424 16.1031 8.24349 16.2523 8.24349 16.4041C8.24349 18.7 10.9374 20.5617 14.2624 20.5617C17.5874 20.5617 20.276 18.7 20.276 16.4041C20.276 16.2523 20.2625 16.1031 20.241 15.9566C20.7675 15.7249 21.1354 15.2029 21.1354 14.593ZM10.8192 15.6583C10.8192 15.0697 11.3026 14.593 11.8935 14.593C12.4871 14.593 12.9678 15.0724 12.9678 15.6583C12.9678 16.247 12.4871 16.7237 11.8935 16.7237C11.3 16.7237 10.8192 16.247 10.8192 15.6583ZM16.8112 18.4763C16.078 19.2034 14.6707 19.2593 14.2597 19.2593C13.8461 19.2593 12.4414 19.2034 11.7082 18.4763C11.6008 18.3697 11.6008 18.1939 11.7082 18.0847C11.8156 17.9782 11.9929 17.9782 12.103 18.0847C12.565 18.5428 13.5534 18.7053 14.2597 18.7053C14.9661 18.7053 15.9545 18.5428 16.4191 18.0847C16.5292 17.9782 16.7038 17.9782 16.8139 18.0847C16.9214 18.1939 16.9214 18.3671 16.8112 18.4763ZM16.6232 16.7237C16.0297 16.7237 15.5489 16.2443 15.5489 15.6583C15.5489 15.0697 16.0324 14.593 16.6232 14.593C17.2168 14.593 17.6976 15.0724 17.6976 15.6583C17.6976 16.247 17.2141 16.7237 16.6232 16.7237Z" fill="white"/>
</svg>
