<svg width="28" height="29" viewBox="0 0 28 29" fill="none" xmlns="http://www.w3.org/2000/svg">
<path d="M13.757 28.1237C21.3517 28.1237 27.5084 22.0183 27.5084 14.4869C27.5084 6.95549 21.3517 0.850098 13.757 0.850098C6.16232 0.850098 0.00561523 6.95549 0.00561523 14.4869C0.00561523 22.0183 6.16232 28.1237 13.757 28.1237Z" fill="#6441A4"/>
<path d="M8.07919 8.25415L7.18213 10.6273V20.1118H10.4696V21.8909H12.2637L14.0551 20.1118H16.7463L20.3319 16.5561V8.25415H8.07919ZM9.27438 9.43938H19.1394V15.9621L17.0471 18.0369H13.757L11.9656 19.8135V18.0369H9.27438V9.43938ZM12.5618 15.3682H13.757V11.8125H12.5618V15.3682ZM15.8493 15.3682H17.0444V11.8125H15.8493V15.3682Z" fill="white"/>
</svg>
